<svg width="165" height="41" viewBox="0 0 165 41" fill="none" xmlns="http://www.w3.org/2000/svg">
<g clip-path="url(#clip0_574_9027)">
<mask id="mask0_574_9027" style="mask-type:alpha" maskUnits="userSpaceOnUse" x="0" y="0" width="165" height="41">
<path d="M0 29.7293H5.78783V28.4535H1.27783V26.4272H5.78783V25.1514H0V29.7293Z" fill="#41BFE8"/>
<path d="M0 23.0504H5.78783V21.6995H1.27783V19.7483H5.78783V18.3975H0V23.0504Z" fill="#41BFE8"/>
<path d="M0 11.568V13.144L2.55566 15.0201H0V16.2959H5.78783V15.0201H3.08183L5.78783 13.0689V11.3428L2.70599 13.6693L0 11.568Z" fill="#41BFE8"/>
<path d="M15.0334 11.418C12.7033 11.418 10.3731 11.418 7.96777 11.418C7.96777 17.5719 7.96777 23.6507 7.96777 29.8045C9.32077 29.8045 10.5986 29.8045 11.9516 29.8045C11.9516 27.8533 11.9516 25.9771 11.9516 24.0259C13.1543 24.0259 14.2818 24.0259 15.4844 24.0259C18.4911 23.9508 21.0468 21.7745 21.4978 18.6976C21.7233 16.7463 21.3474 14.9452 19.9193 13.4443C18.6414 12.0184 16.9878 11.418 15.0334 11.418ZM15.4844 20.2735C14.3569 20.3486 13.1543 20.2735 12.0268 20.2735C12.0268 18.5475 12.0268 16.8214 12.0268 15.0953C12.1019 15.0953 12.1771 15.0953 12.3274 15.0953C13.3798 15.0953 14.4321 15.0953 15.4844 15.1704C16.7623 15.3204 17.5891 16.3711 17.5891 17.7219C17.5891 19.0728 16.7623 20.1985 15.4844 20.2735Z" fill="#41BFE8"/>
<path d="M30.2172 8.04045C26.6092 9.91662 24.6548 13.0686 23.6777 17.0461C25.5568 17.0461 27.3608 17.0461 29.1648 17.0461C29.3152 17.0461 29.5407 16.8209 29.6158 16.6708C31.2695 12.9935 34.9527 11.1924 38.8613 12.3181C41.6425 13.0686 43.3713 14.9448 44.2733 17.7965C40.8908 17.7965 37.5083 17.7965 34.1258 17.7965C34.1258 19.5226 34.1258 21.2487 34.1258 22.9748C35.8547 22.9748 37.5083 22.9748 39.162 22.9748C40.8157 22.9748 42.5445 22.9748 44.1982 22.9748C43.221 27.1024 38.711 29.654 34.5017 28.4532C32.0212 27.7778 30.3675 26.1267 29.4655 23.7252C29.3903 23.5752 29.24 23.35 29.0897 23.35C27.2857 23.35 25.4817 23.35 23.6025 23.35C24.1287 26.2768 25.3313 28.7534 27.436 30.7046C29.9917 33.1061 33.0735 34.2318 36.5312 34.2318C40.1392 34.2318 43.4465 33.1812 46.0773 30.6296C50.0612 26.8022 51.1887 22.0742 49.9108 16.8209C47.731 7.36503 37.5083 4.13801 30.2172 8.04045Z" fill="#41BFE8"/>
<path d="M73.5129 0.460938C62.4634 0.460938 53.5186 9.46657 53.5186 20.4984C53.5186 24.551 54.7212 28.2283 56.7507 31.3802H62.6137V25.5266C61.9372 23.9506 61.4862 22.2995 61.4862 20.4984C61.4862 13.8192 66.8231 8.49096 73.5129 8.49096C75.3169 8.49096 77.0457 8.86619 78.5491 9.61666H84.4121V3.68796C81.2551 1.58664 77.4967 0.460938 73.5129 0.460938Z" fill="#41BFE8"/>
<path d="M84.4121 9.5415V15.3951C85.0886 16.9711 85.5396 18.6222 85.5396 20.4233C85.5396 27.1025 80.2028 32.4308 73.513 32.4308C71.709 32.4308 69.9801 32.0556 68.4768 31.3051H62.6138V37.2338C65.7708 39.2601 69.454 40.4608 73.513 40.4608C84.5625 40.4608 93.5073 31.4552 93.5073 20.4233C93.5073 16.3708 92.3046 12.6935 90.2751 9.5415H84.4121Z" fill="#41BFE8"/>
<path d="M100.631 16.7484H99.7017V11.6479C99.7946 11.6479 99.9803 11.6479 100.445 11.6479C100.816 11.6479 101.095 11.6479 101.188 11.6479C101.559 11.6479 101.838 11.6479 102.117 11.7406C102.395 11.8333 102.581 11.9261 102.767 12.1116C102.953 12.297 103.046 12.4825 103.046 12.668C103.139 12.8534 103.138 13.0389 103.138 13.3171C103.138 13.7808 102.953 14.1518 102.674 14.5227C102.303 14.8009 101.931 14.9864 101.281 14.9864C101.002 14.9864 100.724 14.9864 100.631 14.9864V16.7484ZM101.281 12.4825C101.188 12.4825 101.002 12.4825 100.631 12.4825V14.059C100.909 14.059 101.095 14.059 101.281 14.059C101.559 14.059 101.838 13.9663 101.931 13.8735C102.117 13.7808 102.21 13.5026 102.21 13.2244C102.21 12.7607 101.931 12.4825 101.281 12.4825Z" fill="#41BFE8"/>
<path d="M103.789 14.2445C103.789 13.5026 104.067 12.8534 104.532 12.3898C104.996 11.9261 105.646 11.6479 106.482 11.6479C107.225 11.6479 107.876 11.9261 108.433 12.3898C108.897 12.8534 109.176 13.5026 109.176 14.3372C109.176 15.0791 108.897 15.7283 108.433 16.192C107.969 16.6556 107.318 16.9338 106.482 16.9338C105.739 16.9338 105.089 16.6556 104.532 16.192C104.067 15.6355 103.789 14.9864 103.789 14.2445ZM104.718 14.2445C104.718 14.8009 104.903 15.1719 105.182 15.5428C105.554 15.9137 105.925 16.0992 106.389 16.0992C106.947 16.0992 107.318 15.9137 107.597 15.5428C107.876 15.1719 108.061 14.8009 108.061 14.2445C108.061 13.6881 107.876 13.3171 107.597 12.9462C107.225 12.5752 106.854 12.4825 106.389 12.4825C105.925 12.4825 105.461 12.668 105.182 12.9462C104.903 13.3171 104.718 13.6881 104.718 14.2445Z" fill="#41BFE8"/>
<path d="M113.727 15.6356L114.099 16.2848C113.913 16.4702 113.727 16.563 113.449 16.6557C113.17 16.7484 112.799 16.8412 112.52 16.8412C111.777 16.8412 111.127 16.563 110.569 16.0993C110.105 15.6356 109.826 14.9864 109.826 14.1518C109.826 13.4099 110.012 12.7608 110.476 12.2971C110.941 11.8334 111.591 11.5552 112.427 11.5552C113.077 11.5552 113.635 11.7407 114.006 12.1116L113.635 12.7608C113.263 12.5753 112.891 12.3898 112.52 12.3898C112.056 12.3898 111.684 12.5753 111.312 12.8535C111.034 13.2245 110.848 13.5954 110.848 14.1518C110.848 14.7082 111.034 15.0792 111.312 15.4501C111.684 15.8211 112.056 15.9138 112.613 15.9138C112.984 16.0066 113.356 15.9138 113.727 15.6356Z" fill="#41BFE8"/>
<path d="M118.279 15.6356L118.65 16.2848C118.465 16.4702 118.279 16.563 118 16.6557C117.722 16.7484 117.35 16.8412 117.071 16.8412C116.328 16.8412 115.678 16.563 115.121 16.0993C114.656 15.6356 114.378 14.9864 114.378 14.1518C114.378 13.4099 114.563 12.7608 115.028 12.2971C115.492 11.8334 116.143 11.5552 116.978 11.5552C117.629 11.5552 118.186 11.7407 118.557 12.1116L118.186 12.7608C117.814 12.5753 117.443 12.3898 117.071 12.3898C116.607 12.3898 116.235 12.5753 115.864 12.8535C115.585 13.2245 115.399 13.5954 115.399 14.1518C115.399 14.7082 115.585 15.0792 115.864 15.4501C116.235 15.8211 116.607 15.9138 117.164 15.9138C117.536 16.0066 117.907 15.9138 118.279 15.6356Z" fill="#41BFE8"/>
<path d="M120.322 16.7484H119.579V11.6479H120.508V15.2646L123.202 11.6479H124.038V16.7484H123.109V13.1317L120.322 16.7484Z" fill="#41BFE8"/>
<path d="M126.081 16.748H125.338V11.6475H126.267V15.2642L128.961 11.6475H129.796V16.748H128.868V13.1313L126.081 16.748ZM126.081 10.4419H126.917C127.01 10.7201 127.196 10.9056 127.567 10.9056C127.939 10.9056 128.125 10.7201 128.125 10.4419H128.961C128.961 10.7201 128.775 10.9983 128.589 11.1838C128.31 11.3693 127.939 11.462 127.567 11.462C127.103 11.462 126.824 11.3693 126.546 11.1838C126.267 10.9983 126.174 10.7201 126.081 10.4419Z" fill="#41BFE8"/>
<path d="M134.626 15.6356L134.998 16.2848C134.812 16.4702 134.626 16.563 134.348 16.6557C134.069 16.7484 133.698 16.8412 133.419 16.8412C132.676 16.8412 132.026 16.563 131.468 16.0993C131.004 15.6356 130.725 14.9864 130.725 14.1518C130.725 13.4099 130.911 12.7608 131.375 12.2971C131.84 11.8334 132.49 11.5552 133.326 11.5552C133.976 11.5552 134.533 11.7407 134.905 12.1116L134.533 12.7608C134.162 12.5753 133.79 12.3898 133.419 12.3898C132.954 12.3898 132.583 12.5753 132.211 12.8535C131.933 13.2245 131.747 13.5954 131.747 14.1518C131.747 14.7082 131.933 15.0792 132.211 15.4501C132.583 15.8211 132.954 15.9138 133.512 15.9138C133.883 16.0066 134.255 15.9138 134.626 15.6356Z" fill="#41BFE8"/>
<path d="M135.834 16.7484V11.6479H136.763V14.059L138.806 11.6479H139.921L137.785 14.059L140.014 16.7484H138.899L136.763 14.1518V16.7484H135.834Z" fill="#41BFE8"/>
<path d="M141.593 16.7484H140.85V11.6479H141.779V15.2646L144.472 11.6479H145.308V16.7484H144.379V13.1317L141.593 16.7484Z" fill="#41BFE8"/>
<path d="M147.352 16.748H146.516V11.6475H147.444V15.2642L150.138 11.6475H150.974V16.748H150.045V13.1313L147.352 16.748ZM147.352 10.4419H148.188C148.28 10.7201 148.466 10.9056 148.838 10.9056C149.209 10.9056 149.395 10.7201 149.395 10.4419H150.231C150.231 10.7201 150.045 10.9983 149.859 11.1838C149.581 11.3693 149.209 11.462 148.838 11.462C148.373 11.462 148.095 11.3693 147.816 11.1838C147.537 10.9983 147.444 10.7201 147.352 10.4419Z" fill="#41BFE8"/>
<path d="M100.352 23.3328V22.4982H102.674C102.581 22.0345 102.395 21.7563 102.024 21.4781C101.652 21.2926 101.281 21.1071 100.816 21.1071C100.352 21.1071 99.9805 21.1998 99.609 21.4781L99.2374 20.8289C99.7018 20.458 100.259 20.2725 101.002 20.2725C101.745 20.2725 102.395 20.5507 102.86 21.0144C103.324 21.4781 103.603 22.1272 103.603 22.9618C103.603 23.7965 103.324 24.4456 102.86 24.9093C102.395 25.373 101.745 25.6512 100.909 25.6512C100.538 25.6512 100.259 25.5585 99.8876 25.4657C99.6089 25.373 99.3303 25.2803 99.1445 25.0948L99.609 24.3529C99.9805 24.6311 100.445 24.8166 100.909 24.8166C101.374 24.8166 101.745 24.7238 102.117 24.4456C102.396 24.1674 102.674 23.8892 102.674 23.4255H100.352V23.3328Z" fill="#41BFE8"/>
<path d="M104.625 25.558V20.4575H105.554V22.8687L107.597 20.4575H108.712L106.575 22.8687L108.805 25.558H107.69L105.554 22.9614V25.558H104.625Z" fill="#41BFE8"/>
<path d="M108.897 22.9618C108.897 22.2199 109.176 21.5707 109.641 21.107C110.105 20.6434 110.755 20.3652 111.591 20.3652C112.334 20.3652 112.984 20.6434 113.542 21.107C114.006 21.5707 114.285 22.2199 114.285 23.0545C114.285 23.7964 114.006 24.4456 113.542 24.9092C113.077 25.3729 112.427 25.6511 111.591 25.6511C110.848 25.6511 110.198 25.3729 109.641 24.9092C109.176 24.4456 108.897 23.7964 108.897 22.9618ZM109.826 22.9618C109.826 23.5182 110.012 23.8891 110.291 24.2601C110.662 24.631 111.034 24.8165 111.498 24.8165C112.056 24.8165 112.427 24.631 112.706 24.2601C112.984 23.8891 113.17 23.5182 113.17 22.9618C113.17 22.4054 112.984 22.0344 112.706 21.6635C112.334 21.2925 111.963 21.1998 111.498 21.1998C111.034 21.1998 110.569 21.3853 110.291 21.6635C110.012 22.0344 109.826 22.4981 109.826 22.9618Z" fill="#41BFE8"/>
<path d="M118.093 25.5581V21.2922H116.607L116.514 22.2195C116.421 22.7759 116.421 23.3324 116.328 23.7033C116.235 24.0743 116.142 24.4452 116.05 24.7234C115.957 25.0016 115.771 25.1871 115.678 25.2798C115.492 25.3726 115.399 25.4653 115.214 25.5581C115.028 25.5581 114.842 25.5581 114.656 25.5581V24.6307C114.749 24.6307 114.842 24.6307 114.935 24.6307C115.028 24.6307 115.121 24.5379 115.214 24.4452C115.306 24.3525 115.399 24.167 115.492 23.9815C115.585 23.7961 115.678 23.4251 115.678 23.0542C115.771 22.5905 115.771 22.1268 115.864 21.5704L115.957 20.5503H119.208V25.6508H118.093V25.5581Z" fill="#41BFE8"/>
<path d="M120.044 22.9618C120.044 22.2199 120.322 21.5707 120.787 21.107C121.251 20.6434 121.901 20.3652 122.737 20.3652C123.48 20.3652 124.13 20.6434 124.688 21.107C125.152 21.5707 125.431 22.2199 125.431 23.0545C125.431 23.7964 125.152 24.4456 124.688 24.9092C124.223 25.3729 123.573 25.6511 122.737 25.6511C121.994 25.6511 121.344 25.3729 120.787 24.9092C120.322 24.4456 120.044 23.7964 120.044 22.9618ZM120.972 22.9618C120.972 23.5182 121.158 23.8891 121.437 24.2601C121.808 24.631 122.18 24.8165 122.644 24.8165C123.202 24.8165 123.573 24.631 123.852 24.2601C124.131 23.8891 124.316 23.5182 124.316 22.9618C124.316 22.4054 124.131 22.0344 123.852 21.6635C123.48 21.2925 123.109 21.1998 122.644 21.1998C122.18 21.1998 121.716 21.3853 121.437 21.6635C121.158 22.0344 120.972 22.4981 120.972 22.9618Z" fill="#41BFE8"/>
<path d="M126.453 25.558V20.4575H129.332V21.2921H127.381V25.558H126.453Z" fill="#41BFE8"/>
<path d="M130.911 25.558H130.168V20.4575H131.097V24.0742L133.79 20.4575H134.626V25.558H133.698V21.9413L130.911 25.558Z" fill="#41BFE8"/>
<path d="M139.363 20.4579V25.5584H138.435V23.4255C138.156 23.7037 137.692 23.7964 137.227 23.7964C136.763 23.7964 136.391 23.7037 136.112 23.4255C135.834 23.1473 135.648 22.7763 135.648 22.2199V20.4579H136.577V21.9417C136.577 22.6836 136.856 22.9618 137.506 22.9618C137.877 22.9618 138.156 22.869 138.527 22.5908V20.3652H139.363V20.4579Z" fill="#41BFE8"/>
<path d="M140.757 25.558V20.4575H143.729V21.2921H141.686V22.4977H143.543V23.3323H141.686V24.6306H143.822V25.4653H140.757V25.558Z" fill="#41BFE8"/>
<path d="M148.559 24.3529L148.931 25.002C148.745 25.1875 148.559 25.2803 148.28 25.373C148.002 25.4657 147.63 25.5585 147.352 25.5585C146.609 25.5585 145.958 25.2803 145.401 24.8166C144.937 24.3529 144.658 23.7037 144.658 22.8691C144.658 22.1272 144.844 21.4781 145.308 21.0144C145.773 20.5507 146.423 20.2725 147.259 20.2725C147.909 20.2725 148.466 20.458 148.838 20.8289L148.466 21.4781C148.095 21.2926 147.723 21.1071 147.352 21.1071C146.887 21.1071 146.516 21.2926 146.144 21.5708C145.865 21.9417 145.68 22.3127 145.68 22.8691C145.68 23.4255 145.865 23.7965 146.144 24.1674C146.516 24.5384 146.887 24.6311 147.444 24.6311C147.723 24.8166 148.188 24.6311 148.559 24.3529Z" fill="#41BFE8"/>
<path d="M149.767 25.558V20.4575H150.695V22.8687L152.739 20.4575H153.854L151.717 22.8687L153.946 25.558H152.832L150.695 22.9614V25.558H149.767Z" fill="#41BFE8"/>
<path d="M155.433 25.558H154.689V20.4575H155.618V24.0742L158.312 20.4575H159.055V25.558H158.126V21.9413L155.433 25.558Z" fill="#41BFE8"/>
<path d="M161.284 25.5585H160.541V20.458H161.47V24.0747L164.164 20.458H165V25.5585H164.071V21.9418L161.284 25.5585ZM161.284 19.1597H162.12C162.213 19.4379 162.399 19.6234 162.77 19.6234C163.142 19.6234 163.328 19.4379 163.328 19.1597H164.164C164.164 19.4379 163.978 19.7161 163.792 19.9016C163.514 20.087 163.142 20.1798 162.77 20.1798C162.306 20.1798 162.027 20.087 161.749 19.9016C161.47 19.7161 161.284 19.5306 161.284 19.1597Z" fill="#41BFE8"/>
<path d="M99.3301 31.7714C99.3301 31.0295 99.6088 30.3804 100.073 29.9167C100.538 29.453 101.188 29.1748 102.024 29.1748C102.767 29.1748 103.417 29.453 103.975 29.9167C104.439 30.3804 104.718 31.0295 104.718 31.8642C104.718 32.606 104.439 33.2552 103.975 33.7189C103.51 34.1826 102.86 34.4608 102.024 34.4608C101.281 34.4608 100.631 34.1826 100.073 33.7189C99.6088 33.1625 99.3301 32.5133 99.3301 31.7714ZM100.259 31.7714C100.259 32.3278 100.445 32.6988 100.724 33.0697C101.095 33.4407 101.467 33.6261 101.931 33.6261C102.488 33.6261 102.86 33.4407 103.139 33.0697C103.417 32.6988 103.603 32.3278 103.603 31.7714C103.603 31.215 103.417 30.844 103.139 30.4731C102.767 30.1022 102.396 30.0094 101.931 30.0094C101.467 30.0094 101.002 30.1949 100.724 30.4731C100.445 30.7513 100.259 31.215 100.259 31.7714Z" fill="#41BFE8"/>
<path d="M108.897 34.2753V30.0094H106.575V34.2753H105.646V29.1748H109.733V34.2753H108.897Z" fill="#41BFE8"/>
<path d="M111.219 34.2753V29.1748H114.192V30.0094H112.148V31.3077H114.006V32.1424H112.148V33.4407H114.285V34.2753H111.219Z" fill="#41BFE8"/>
<path d="M116.328 34.2753H115.399V29.1748C115.492 29.1748 115.678 29.1748 116.142 29.1748C116.514 29.1748 116.793 29.1748 116.885 29.1748C117.257 29.1748 117.536 29.1748 117.814 29.2675C118.093 29.3603 118.279 29.453 118.464 29.6385C118.65 29.8239 118.743 30.0094 118.743 30.1949C118.836 30.3804 118.836 30.5658 118.836 30.844C118.836 31.3077 118.65 31.6787 118.372 32.0496C118 32.3278 117.629 32.5133 116.978 32.5133C116.7 32.5133 116.421 32.5133 116.328 32.5133V34.2753ZM116.978 30.0094C116.885 30.0094 116.7 30.0094 116.328 30.0094V31.5859C116.607 31.5859 116.793 31.5859 116.978 31.5859C117.257 31.5859 117.536 31.4932 117.629 31.4005C117.814 31.3077 117.907 31.0295 117.907 30.7513C117.907 30.2876 117.629 30.0094 116.978 30.0094Z" fill="#41BFE8"/>
<path d="M118.743 34.2753L120.879 29.1748H121.623L123.759 34.2753H122.83L122.273 32.977H120.044L119.486 34.2753H118.743ZM121.344 30.2876L120.601 32.1424H122.087L121.344 30.2876Z" fill="#41BFE8"/>
<path d="M123.573 30.0094V29.1748H127.753V30.0094H126.081V34.2753H125.152V30.0094H123.573Z" fill="#41BFE8"/>
<path d="M127.939 31.7714C127.939 31.0295 128.217 30.3804 128.682 29.9167C129.146 29.453 129.796 29.1748 130.632 29.1748C131.375 29.1748 132.026 29.453 132.583 29.9167C133.047 30.3804 133.326 31.0295 133.326 31.8642C133.326 32.606 133.047 33.2552 132.583 33.7189C132.119 34.1826 131.468 34.4608 130.632 34.4608C129.889 34.4608 129.239 34.1826 128.682 33.7189C128.217 33.1625 127.939 32.5133 127.939 31.7714ZM128.868 31.7714C128.868 32.3278 129.053 32.6988 129.332 33.0697C129.704 33.4407 130.075 33.6261 130.539 33.6261C131.097 33.6261 131.468 33.4407 131.747 33.0697C132.026 32.6988 132.211 32.3278 132.211 31.7714C132.211 31.215 132.026 30.844 131.747 30.4731C131.375 30.1022 131.004 30.0094 130.539 30.0094C130.075 30.0094 129.611 30.1949 129.332 30.4731C129.053 30.7513 128.868 31.215 128.868 31.7714Z" fill="#41BFE8"/>
<path d="M135.184 34.2753H134.255V29.1748C134.348 29.1748 134.534 29.1748 134.998 29.1748C135.37 29.1748 135.648 29.1748 135.741 29.1748C136.113 29.1748 136.391 29.1748 136.67 29.2675C136.949 29.3603 137.134 29.453 137.32 29.6385C137.506 29.8239 137.599 30.0094 137.599 30.1949C137.692 30.3804 137.692 30.5658 137.692 30.844C137.692 31.3077 137.506 31.6787 137.227 32.0496C136.856 32.3278 136.484 32.5133 135.834 32.5133C135.555 32.5133 135.277 32.5133 135.184 32.5133V34.2753ZM135.834 30.0094C135.741 30.0094 135.555 30.0094 135.184 30.0094V31.5859C135.462 31.5859 135.648 31.5859 135.834 31.5859C136.113 31.5859 136.391 31.4932 136.484 31.4005C136.67 31.3077 136.763 31.0295 136.763 30.7513C136.763 30.2876 136.484 30.0094 135.834 30.0094Z" fill="#41BFE8"/>
</mask>
<g mask="url(#mask0_574_9027)">
<path d="M165 40.4609V0.460938L0 0.460938V40.4609L165 40.4609Z" fill="#00A3E9"/>
</g>
</g>
<defs>
<clipPath id="clip0_574_9027">
<rect width="165" height="40" fill="white" transform="translate(0 0.460938)"/>
</clipPath>
</defs>
</svg>
